<svg width="183" height="24" viewBox="0 0 183 24" fill="none" xmlns="http://www.w3.org/2000/svg">
<g opacity="0.3" clip-path="url(#clip0_3749_21913)">
<path d="M156.202 9.5232V23.9856H160.791V14.344H177.571V23.9856H182.159V9.5232H156.202ZM160.266 4.83448H177.964C180.455 4.37221 182.225 2.1269 182.749 0.0136719H155.481C156.006 2.1269 157.841 4.30617 160.266 4.83448ZM142.241 23.9856C144.535 22.995 145.78 21.278 146.305 19.2969H125.657V0.0797103H121.003V23.9856H142.241ZM86.5904 4.76844H102.977C105.468 4.04202 107.5 2.1269 108.025 0.0797103H82.0676V14.2119H103.305V19.1648H86.6559C84.034 19.8912 81.8054 21.6743 80.6911 23.9856H107.893V9.5232H86.6559L86.5904 4.76844ZM46.2129 4.83448H63.9108C66.4016 4.37221 68.237 2.1269 68.6958 0.0136719H41.3623C41.8867 2.1269 43.722 4.30617 46.2129 4.83448ZM46.2129 14.278H63.9108C66.4016 13.8157 68.237 11.5704 68.6958 9.45717H41.3623C41.8867 11.5704 43.722 13.7497 46.2129 14.278ZM46.2129 23.9856H63.9108C66.4016 23.5233 68.237 21.278 68.6958 19.1648H41.3623C41.8867 21.278 43.722 23.5233 46.2129 23.9856Z" fill="#202430"/>
<path d="M0.132812 0.0797103C0.657196 2.19294 2.49254 4.30617 4.91781 4.83448H12.3903L12.7836 4.96655V23.9196H17.4375V4.96655L17.8308 4.83448H25.3032C27.794 4.17409 29.5638 2.19294 30.0882 0.0797103V0.0136719L0.132812 0.0797103Z" fill="#202430"/>
</g>
<defs>
<clipPath id="clip0_3749_21913">
<rect width="182.682" height="24" fill="white" transform="translate(0.132812)"/>
</clipPath>
</defs>
</svg>
