<svg width="109" height="32" viewBox="0 0 109 32" fill="none" xmlns="http://www.w3.org/2000/svg">
<g opacity="0.3">
<path d="M11.6361 31.6074C11.0604 31.6074 10.772 31.3594 10.772 30.861V30.7045C10.772 30.3914 11.0353 29.9195 11.5607 29.291C12.1112 28.6373 12.3864 27.9823 12.3864 27.3286V6.68086H10.3963C9.82064 6.68086 9.29528 6.93008 8.81898 7.42731C8.37344 7.91675 8.00607 8.47276 7.72996 9.07552C7.47865 9.65101 7.1675 10.188 6.79173 10.6852C6.41596 11.1824 6.04019 11.4316 5.66442 11.4316H5.02656C4.32528 11.4316 4.01174 11.0512 4.08713 10.2927L4.83868 4.95319C4.91287 4.14294 5.33891 3.7372 6.11558 3.7372H25.4187C26.1691 3.7372 26.5951 4.14294 26.6945 4.95319L27.4843 10.3312C27.5334 10.672 27.4711 10.9465 27.2952 11.1559C27.1205 11.3389 26.8704 11.4304 26.5449 11.4304H25.9058C25.5312 11.4304 25.1555 11.1824 24.7797 10.684C24.4039 10.1856 24.0784 9.65101 23.8032 9.07552C23.5279 8.47354 23.1522 7.92454 22.6771 7.42611C22.2008 6.93008 21.6754 6.68086 21.0998 6.68086H19.1467V27.3286C19.1467 27.9823 19.41 28.6373 19.9354 29.291C20.4858 29.9195 20.7611 30.3902 20.7611 30.7045V30.861C20.7611 31.3594 20.4619 31.6074 19.86 31.6074H11.6361ZM43.4306 27.3286C43.506 27.9571 43.6437 28.4675 43.8435 28.86C44.0697 29.226 44.2815 29.462 44.4826 29.5667C44.7076 29.6715 44.9074 29.8015 45.0833 29.9592C45.258 30.1157 45.3466 30.312 45.3466 30.548C45.3466 31.4112 43.9321 31.8434 41.103 31.8434C39.9506 31.8434 39.0865 31.6989 38.5109 31.41C37.9604 31.1235 37.6098 30.6395 37.4602 29.9592C36.5076 31.3197 34.9183 31.9999 32.69 31.9999C30.5874 31.9999 28.8725 31.4895 27.5441 30.4685C26.2433 29.4488 25.5935 27.9703 25.5935 26.0332C25.5935 24.149 26.2433 22.6838 27.5441 21.6363C28.8474 20.5648 30.4498 20.0278 32.3526 20.0278C33.8293 20.0278 35.0931 20.3541 36.1462 21.0091V20.8911C35.8949 18.3002 35.6077 16.5472 35.281 15.6298C34.9818 14.7148 34.3798 14.2573 33.4787 14.2573C32.9031 14.2573 32.4399 14.5318 32.0893 15.0808C31.7354 15.6383 31.4693 16.2474 31.3006 16.8867C31.1453 17.5515 30.8366 18.1702 30.3995 18.6927C29.9483 19.2429 29.3476 19.5174 28.5972 19.5174C27.8206 19.5174 27.1827 19.2814 26.6825 18.8107C26.2062 18.3399 25.968 17.7247 25.968 16.9662C25.968 15.448 26.6945 14.3091 28.1461 13.5506C29.5977 12.7656 31.376 12.3731 33.4787 12.3731C35.9822 12.3731 38.0478 13.0919 39.6753 14.5318C41.3268 15.9453 42.3045 17.868 42.6049 20.3023L43.4306 27.3286ZM34.7556 29.9978C35.3312 29.9978 35.7943 29.71 36.145 29.1345C36.5208 28.559 36.7074 27.9041 36.7074 27.1721L36.5579 25.3662C36.3077 23.1942 35.5323 22.1083 34.2302 22.1083C33.6546 22.1083 33.1915 22.3563 32.8408 22.8547C32.4902 23.3243 32.3143 23.966 32.3143 24.7774C32.3143 26.2426 32.5273 27.4863 32.9533 28.5061C33.4033 29.5005 34.0052 29.999 34.7556 29.999V29.9978ZM46.9909 31.6074C46.4141 31.6074 46.1269 31.3594 46.1269 30.861V30.7045C46.1269 30.3914 46.3638 29.9195 46.8401 29.291C47.3403 28.6373 47.5905 27.9823 47.5905 27.3286V9.38975C47.5905 8.70952 47.3403 8.05457 46.8401 7.42731C46.3638 6.77236 46.1269 6.31486 46.1269 6.0524V5.89589C46.1269 5.60694 46.4021 5.30595 46.9526 4.99292L52.6227 2.08779C53.1492 1.85302 53.5621 1.83978 53.8625 2.04927C54.188 2.23227 54.3508 2.52001 54.3508 2.9125V27.3286C54.3508 27.9823 54.626 28.6373 55.1765 29.291C55.727 29.9195 56.0022 30.3902 56.0022 30.7045V30.861C56.0022 31.3594 55.7031 31.6074 55.1023 31.6074H46.9909ZM77.5864 28.3098C77.712 28.4928 78.0878 28.8335 78.7137 29.3308C79.3647 29.828 79.6902 30.2855 79.6902 30.7045V30.861C79.6902 31.3594 79.403 31.6074 78.8262 31.6074H70.9398C70.3641 31.6074 70.0757 31.3462 70.0757 30.8225V30.7045C70.0757 30.3914 70.2636 30.011 70.6394 29.5655C71.0151 29.096 71.0905 28.6758 70.8644 28.3098L67.5602 23.1677L65.6813 24.9737V27.3286C65.6813 27.9823 65.9566 28.6373 66.5083 29.291C67.0839 29.9195 67.3723 30.3902 67.3723 30.7045V30.861C67.3723 31.3594 67.0719 31.6074 66.4712 31.6074H58.3586C57.7578 31.6074 57.4575 31.3594 57.4575 30.861V30.7045C57.4575 30.3914 57.7088 29.9195 58.209 29.291C58.7092 28.6373 58.9605 27.9823 58.9605 27.3286V9.38975C58.9605 8.70952 58.659 8.05457 58.0582 7.42731C57.4575 6.77236 57.1571 6.31486 57.1571 6.0524V5.89589C57.1571 5.60694 57.4323 5.30595 57.9828 4.99292L63.994 2.08779C64.5193 1.87831 64.9322 1.86627 65.2326 2.04927C65.533 2.23227 65.6837 2.52001 65.6837 2.9125V21.5581L70.7531 17.0047C71.0534 16.7952 71.1659 16.534 71.0917 16.2198C71.0459 15.9148 70.9157 15.629 70.716 15.3951C70.5204 15.1041 70.3201 14.8163 70.1152 14.5318C69.9142 14.2188 69.8148 13.9419 69.8148 13.7071V13.5506C69.8148 13.0269 70.102 12.7656 70.6777 12.7656H76.6122C77.1867 12.7656 77.4751 13.0136 77.4751 13.5121V13.6686C77.4751 13.9816 77.3003 14.3091 76.9497 14.6498C76.5991 14.9628 76.0988 15.3433 75.4478 15.7875C74.9132 16.1345 74.4105 16.529 73.9459 16.9662L71.5417 19.2814L77.5864 28.3098ZM85.1592 10.4492C83.8823 10.4492 82.8436 10.0832 82.0418 9.35002C81.24 8.59153 80.8402 7.64884 80.8402 6.52435C80.8402 5.39865 81.2412 4.46921 82.0418 3.7372C82.8436 2.97872 83.8823 2.59827 85.1592 2.59827C86.411 2.59827 87.4378 2.97751 88.2384 3.7372C89.0402 4.46921 89.4399 5.39865 89.4399 6.52435C89.4399 7.64884 89.0402 8.59153 88.2384 9.35002C87.4366 10.0832 86.411 10.4492 85.1592 10.4492ZM81.1406 31.6074C80.5399 31.6074 80.2395 31.3594 80.2395 30.861V30.7045C80.2395 30.3914 80.4908 29.9063 80.991 29.2525C81.4913 28.5988 81.7414 27.9438 81.7414 27.2901V19.8316C81.7414 19.1514 81.4913 18.4964 80.991 17.8692C80.4896 17.2142 80.2395 16.7688 80.2395 16.5328V16.3763C80.2395 16.0632 80.5267 15.7623 81.1035 15.4733L86.7736 12.5694C87.3002 12.3334 87.713 12.3069 88.0134 12.4911C88.3138 12.6741 88.4646 12.9751 88.4646 13.3941V27.2901C88.4646 27.9438 88.7398 28.5976 89.2903 29.2525C89.866 29.9063 90.1544 30.3902 90.1544 30.7045V30.861C90.1544 31.3582 89.8408 31.6074 89.2149 31.6074H81.1406ZM99.563 31.9999C97.6602 31.9999 96.1595 31.3715 95.0573 30.1157C93.9803 28.86 93.4418 27.0673 93.4418 24.7377V15.4348H92.0153C91.7806 15.4403 91.5526 15.3559 91.3774 15.1988C91.2252 15.0108 91.145 14.7742 91.1512 14.5318V13.6686C91.1512 13.0666 91.4396 12.7656 92.0153 12.7656H92.7285C93.881 12.7656 94.8706 12.4117 95.6964 11.7061C96.5221 10.9717 97.0607 10.005 97.3108 8.80102C97.4364 8.12078 97.7739 7.78007 98.3244 7.78007H99.1884C99.8646 7.78007 100.202 8.12078 100.202 8.80102V12.7656H104.071C104.321 12.7656 104.521 12.8571 104.672 13.0401C104.847 13.1966 104.935 13.4061 104.935 13.6686V14.5318C104.937 14.655 104.915 14.7775 104.87 14.892C104.825 15.0065 104.758 15.1108 104.672 15.1988C104.594 15.2781 104.5 15.3401 104.396 15.3808C104.293 15.4214 104.182 15.4398 104.071 15.4348H100.202V24.8557C100.202 25.5094 100.365 26.0332 100.69 26.4256C101.016 26.7928 101.417 26.9758 101.892 26.9758C102.969 26.9758 103.795 26.4919 104.371 25.5227C104.546 25.2879 104.746 25.1567 104.972 25.1302C105.197 25.0784 105.385 25.1181 105.535 25.2482C105.711 25.3794 105.798 25.5612 105.798 25.7984C105.798 27.4466 105.235 28.8986 104.108 30.1555C103.007 31.3847 101.492 31.9999 99.563 31.9999Z" fill="#202430"/>
</g>
</svg>
