<svg width="154" height="40" viewBox="0 0 154 40" fill="none" xmlns="http://www.w3.org/2000/svg">
<g opacity="0.3">
<path d="M37.5616 20.0003C37.5616 25.0221 35.5829 29.8383 32.0608 33.3892C28.5387 36.9402 23.7618 38.9351 18.7808 38.9351C13.7998 38.9351 9.02284 36.9402 5.50076 33.3892C1.97868 29.8383 0 25.0221 0 20.0003C0 14.9784 1.97868 10.1623 5.50076 6.61132C9.02284 3.06034 13.7998 1.06543 18.7808 1.06543C23.7618 1.06543 28.5387 3.06034 32.0608 6.61132C35.5829 10.1623 37.5616 14.9784 37.5616 20.0003Z" fill="#202430"/>
<path d="M18.9349 30.5534C13.7741 30.5718 8.40424 26.1381 8.37698 19.002C8.36789 14.2843 10.8938 9.74984 14.1102 7.05664C17.2631 4.42756 21.5699 2.75118 25.4769 2.73286C25.9328 2.71556 26.3888 2.76493 26.8307 2.87943C25.1153 3.2606 23.5776 4.214 22.4663 5.58544C21.355 6.95688 20.735 8.66618 20.7067 10.4369C20.7067 10.5651 20.7067 10.6934 20.7249 10.7483C26.4491 12.1499 29.0386 15.6309 29.0567 20.4494C29.0532 21.7837 28.7882 23.1042 28.2771 24.3351C27.7659 25.5659 27.0186 26.6828 26.0781 27.6217C25.1376 28.5605 24.0224 29.3028 22.7966 29.806C21.5707 30.3091 20.2584 30.5631 18.9349 30.5534Z" fill="white"/>
<path d="M49.6913 27.8416L43.958 14.0183H47.7105L51.2995 23.1972L54.7704 14.0183H58.3502L52.7714 27.8416H49.6913ZM68.3358 20.8612C68.3399 20.3052 68.2727 19.751 68.1359 19.2123C68.0202 18.7356 67.8168 18.2851 67.5362 17.8841C67.2833 17.5205 66.9546 17.2172 66.5731 16.9955C66.166 16.7639 65.7047 16.6468 65.2374 16.6565C64.7701 16.6463 64.3087 16.7634 63.9018 16.9955C63.5163 17.2152 63.1841 17.5187 62.9296 17.8841C62.6512 18.2885 62.4508 18.7423 62.339 19.2215C62.2029 19.7572 62.1357 20.3083 62.1391 20.8612C62.1345 21.4173 62.2017 21.9716 62.339 22.5101C62.4534 22.9854 62.647 23.4376 62.9114 23.8476C63.1628 24.234 63.507 24.5501 63.9121 24.7663C64.3172 24.9825 64.77 25.0919 65.2283 25.0842C65.6865 25.0983 66.1403 24.9916 66.5451 24.7747C66.9498 24.5578 67.2914 24.2383 67.5362 23.8476C67.8128 23.4443 68.0159 22.9945 68.1359 22.5193C68.2739 21.9778 68.3411 21.4203 68.3358 20.8612ZM71.7975 20.8704C71.7977 21.7719 71.6597 22.6679 71.3887 23.527C71.1243 24.3744 70.7086 25.1661 70.162 25.8629C69.5759 26.6062 68.8251 27.2006 67.9698 27.5983C67.1146 27.996 66.1787 28.186 65.2374 28.153C64.2951 28.1838 63.3587 27.9929 62.5023 27.5954C61.6459 27.1979 60.8932 26.6047 60.3037 25.8629C59.7583 25.1653 59.3427 24.3739 59.0771 23.527C58.5372 21.8071 58.5372 19.9611 59.0771 18.2413C59.343 17.4029 59.7587 16.6205 60.3037 15.9329C60.8583 15.2448 61.5563 14.6881 62.3481 14.3023C63.2501 13.8711 64.2394 13.6578 65.2374 13.6794C66.1728 13.6533 67.1018 13.8427 67.9536 14.2332C68.8054 14.6237 69.5576 15.205 70.153 15.9329C70.6981 16.6107 71.1161 17.3802 71.3887 18.2413C71.6612 19.1024 71.7975 19.9818 71.7975 20.8704ZM82.3918 17.0688C81.7899 16.8131 81.1458 16.6733 80.4928 16.6565C79.9824 16.6316 79.4738 16.7359 79.0136 16.9599C78.5534 17.1839 78.156 17.5205 77.8579 17.939C77.5709 18.3411 77.3557 18.7906 77.2219 19.2673C77.0809 19.7585 77.0105 20.2675 77.0129 20.7788C77.0098 21.3337 77.0707 21.887 77.1946 22.4277C77.3038 22.9161 77.4976 23.3812 77.767 23.8018C78.0124 24.1888 78.3417 24.5145 78.7301 24.7545C79.1118 24.9926 79.5751 25.1209 80.093 25.1209C80.5612 25.1104 81.0198 24.9846 81.4287 24.7545C81.8205 24.5683 82.1538 24.2766 82.3918 23.9117V17.0688ZM82.6735 27.8416L82.5372 26.7789C82.1752 27.1754 81.744 27.5015 81.2651 27.7408C80.5707 28.0403 79.8186 28.1793 79.0639 28.1476C78.3092 28.1159 77.5712 27.9143 76.9039 27.5576C76.1884 27.1607 75.5681 26.6104 75.0867 25.9453C74.5782 25.246 74.1968 24.4613 73.96 23.6277C73.7048 22.7344 73.5763 21.8092 73.5784 20.8796C73.5784 19.9727 73.7056 19.0932 73.9691 18.2322C74.2254 17.3961 74.6353 16.6162 75.1775 15.9329C75.7632 15.2008 76.5097 14.6161 77.3581 14.225C78.2065 13.8339 79.1335 13.6471 80.0658 13.6794C80.7927 13.6794 81.565 13.8168 82.3918 14.0824V8.72352H85.9172V27.8416H82.6735ZM95.8391 21.3559C95.0618 21.4084 94.2882 21.5063 93.5222 21.649C92.7589 21.8048 92.2319 22.0613 91.9321 22.4368C91.6514 22.7799 91.4973 23.2105 91.496 23.6552C91.496 24.1132 91.6595 24.4797 91.9957 24.7545C92.4027 25.0549 92.9004 25.2038 93.404 25.1759C93.8583 25.1759 94.3126 25.0842 94.7397 24.8919C95.1436 24.7141 95.5152 24.4695 95.8391 24.1682V21.3559ZM96.1208 27.8232L95.9845 26.7973C95.5815 27.2372 95.0843 27.5787 94.5307 27.7958C93.3664 28.2603 92.0739 28.2799 90.8963 27.8507C90.0508 27.5665 89.3182 27.0162 88.8062 26.2807C88.2942 25.5452 88.03 24.6634 88.0524 23.7651C88.0407 23.1602 88.1683 22.5607 88.4253 22.0139C88.6823 21.4671 89.0616 20.9879 89.5334 20.6139C90.0102 20.2399 90.5401 19.9404 91.1053 19.7253C92.1874 19.3384 93.3141 19.0921 94.458 18.9925L95.8209 18.8642V18.6627C95.8209 17.9024 95.621 17.3619 95.2303 17.0321C94.7648 16.6833 94.192 16.5113 93.613 16.5466C92.5832 16.5518 91.5803 16.8782 90.7418 17.481C90.5586 17.5983 90.3826 17.7268 90.2149 17.8657L89.0428 15.3741C89.605 14.944 90.2224 14.5927 90.8781 14.3298C92.586 13.614 94.4816 13.4915 96.2661 13.9817C96.8797 14.175 97.4412 14.5076 97.9074 14.9538C98.3736 15.4 98.7322 15.9481 98.9556 16.5558C99.2287 17.322 99.3581 18.1328 99.3372 18.9467V27.8324L96.1208 27.8232ZM110.231 11.8747C109.603 11.5913 108.92 11.4535 108.232 11.4717C107.751 11.4717 107.333 11.6182 107.006 11.9205C106.67 12.2137 106.506 12.6992 106.506 13.3679V14.0183H109.468V16.8856H106.533V27.8416H103.008V16.8856H101.191V14.0183H103.008V13.2855C103.008 12.3786 103.126 11.6182 103.353 10.9953C103.539 10.4373 103.851 9.9311 104.267 9.51739C104.682 9.10368 105.187 8.7941 105.743 8.61359C107.362 8.17769 109.077 8.28378 110.631 8.91589L110.231 11.8747ZM119.844 20.8612C119.847 20.3053 119.78 19.7513 119.644 19.2123C119.529 18.7356 119.325 18.2851 119.045 17.8841C118.792 17.5205 118.463 17.2172 118.082 16.9955C117.675 16.7639 117.213 16.6468 116.746 16.6565C116.279 16.6463 115.817 16.7634 115.41 16.9955C115.026 17.2166 114.694 17.5199 114.438 17.8841C114.159 18.2894 113.956 18.7426 113.838 19.2215C113.562 20.3031 113.562 21.4377 113.838 22.5193C113.958 22.9914 114.155 23.4402 114.42 23.8476C114.668 24.2255 115.001 24.5392 115.392 24.7636C115.808 24.9895 116.274 25.1031 116.746 25.0934C117.203 25.1049 117.656 24.996 118.059 24.7776C118.462 24.5591 118.802 24.2386 119.045 23.8476C119.321 23.4443 119.524 22.9945 119.644 22.5193C119.781 21.9774 119.848 21.4202 119.844 20.8612ZM123.306 20.8704C123.308 21.772 123.17 22.6683 122.897 23.527C122.634 24.3751 122.219 25.167 121.671 25.8629C121.084 26.6062 120.334 27.2006 119.478 27.5983C118.623 27.996 117.687 28.186 116.746 28.153C115.804 28.1838 114.867 27.9929 114.011 27.5954C113.154 27.1979 112.402 26.6047 111.812 25.8629C111.267 25.1653 110.851 24.3739 110.586 23.527C110.039 21.8083 110.039 19.96 110.586 18.2413C110.849 17.4035 111.261 16.6212 111.803 15.9329C112.36 15.2437 113.062 14.687 113.857 14.3023C114.759 13.8711 115.748 13.6578 116.746 13.6794C117.681 13.6533 118.61 13.8427 119.462 14.2332C120.314 14.6237 121.066 15.205 121.662 15.9329C122.207 16.6107 122.625 17.3802 122.897 18.2413C123.17 19.1024 123.306 19.9818 123.306 20.8704ZM134.255 27.8416V19.9635C134.309 19.0979 134.079 18.2383 133.601 17.5176C133.388 17.2378 133.112 17.0135 132.796 16.8637C132.48 16.7138 132.132 16.6428 131.783 16.6565C131.244 16.6503 130.715 16.7997 130.257 17.0871C129.818 17.3547 129.412 17.6746 129.048 18.0398V27.8416H125.523V14.0183H128.74L128.903 15.1176C130.012 14.1853 131.411 13.6762 132.855 13.6794C133.582 13.6794 134.246 13.7893 134.854 14.0091C135.448 14.2255 135.982 14.5839 136.408 15.0534C136.853 15.5298 137.19 16.1527 137.426 16.913C137.662 17.6825 137.78 18.5986 137.78 19.6612V27.8416H134.255ZM148.747 19.2673C148.721 18.8374 148.619 18.4156 148.447 18.0215C148.307 17.6968 148.103 17.4039 147.847 17.1604C147.407 16.7496 146.83 16.5207 146.23 16.5191C145.586 16.5308 144.967 16.7745 144.486 17.2062C144.195 17.4671 143.96 17.7838 143.793 18.1378C143.626 18.4917 143.531 18.8758 143.513 19.2673H148.747ZM143.432 21.8231C143.504 22.9865 143.868 23.8293 144.522 24.3422C145.242 24.8821 146.124 25.1569 147.021 25.1209C147.859 25.1199 148.69 24.9646 149.474 24.6629C149.761 24.548 150.041 24.4134 150.31 24.2598C150.493 24.1546 150.664 24.0286 150.819 23.8842L151.763 26.7789C151.229 27.1436 150.644 27.4275 150.028 27.6217C148.903 27.9695 147.734 28.1485 146.557 28.153C145.691 28.1561 144.831 28.0105 144.013 27.7225C143.219 27.443 142.496 26.9894 141.896 26.3942C141.261 25.7531 140.766 24.9856 140.442 24.1407C140.058 23.1173 139.873 22.0286 139.897 20.9345C139.897 19.762 140.07 18.736 140.397 17.8383C140.804 16.6075 141.59 15.5401 142.641 14.7919C143.692 14.0437 144.953 13.6539 146.239 13.6794C147.067 13.671 147.89 13.817 148.665 14.1099C149.401 14.3939 150.037 14.8428 150.573 15.4382C151.118 16.0428 151.545 16.8214 151.854 17.7833C152.172 18.736 152.327 19.8719 152.327 21.191V21.8231H143.432Z" fill="#202430"/>
</g>
</svg>
