<svg width="83" height="32" viewBox="0 0 83 32" fill="none" xmlns="http://www.w3.org/2000/svg">
<g opacity="0.3" clip-path="url(#clip0_3749_21909)">
<path d="M0.303711 0.446289H6.24396V6.41618H0.303711V0.446289Z" fill="#202430"/>
<path d="M6.09647 31.5512V10.0297H0.452148V31.5299H6.09655L6.09647 31.5512ZM43.4717 31.7636V26.4948C42.6472 26.4948 41.9495 26.4523 41.4422 26.3674C40.8503 26.2824 40.4064 26.0699 40.1104 25.7725C39.8144 25.4751 39.6241 25.0501 39.5184 24.4765C39.4339 23.9453 39.3917 23.2443 39.3917 22.3945V14.8949H43.4717V10.0297H39.3916V1.65911H33.7472V22.4583C33.7472 24.2216 33.8952 25.7087 34.1911 26.8985C34.4871 28.067 34.9945 29.023 35.6921 29.7453C36.3896 30.4677 37.3199 30.9775 38.4403 31.2963C39.5818 31.6149 41.0193 31.7636 42.7317 31.7636H43.4717ZM75.7732 31.5512V0.00195312H70.1289V31.5512H75.7732ZM28.3145 12.1543C26.7502 10.4546 24.5516 9.60483 21.7611 9.60483C20.4082 9.60483 19.1609 9.88103 18.0617 10.4334C16.9413 10.9858 16.0111 11.7506 15.2501 12.7278L14.9541 13.1315V10.0297H9.3944V31.5299H14.9964V20.0787V20.4824C15.0598 18.4641 15.5461 16.9769 16.4762 16.0209C17.4698 15.0011 18.6747 14.4913 20.0489 14.4913C21.6766 14.4913 22.9238 15.0011 23.7483 15.9784C24.5516 16.9557 24.9744 18.3366 24.9744 20.1V31.5299H30.661V19.3351C30.6821 16.2758 29.8789 13.8539 28.3145 12.1543ZM67.2115 20.7585C67.2115 19.2077 66.9367 17.763 66.4082 16.4033C65.8586 15.0648 65.0975 13.8751 64.1463 12.8553C63.1738 11.8356 62.0111 11.0495 60.6582 10.4759C59.3052 9.90223 57.8043 9.62603 56.1766 9.62603C54.6334 9.62603 53.1747 9.92351 51.8217 10.4971C50.4688 11.092 49.285 11.8781 48.2914 12.8766C47.2978 13.8751 46.4945 15.0649 45.9238 16.4246C45.3318 17.7843 45.057 19.2502 45.057 20.8011C45.057 22.352 45.3319 23.8179 45.8815 25.1776C46.4311 26.5373 47.2133 27.727 48.1857 28.7256C49.1582 29.7241 50.3631 30.5314 51.7583 31.105C53.1536 31.6999 54.6968 31.9974 56.3457 31.9974C61.1233 31.9974 64.0828 29.8091 65.8586 27.7695L61.7997 24.6677C60.9541 25.6875 58.9248 27.0685 56.388 27.0685C54.8025 27.0685 53.4918 26.7072 52.4982 25.9637C51.5046 25.2413 50.8282 24.2216 50.4687 22.9681L50.4054 22.7769H67.2115V20.7585ZM50.4476 18.7828C50.4476 17.2106 52.2445 14.47 56.1131 14.4488C59.9817 14.4488 61.7997 17.1894 61.7997 18.7615L50.4476 18.7828ZM82.1998 28.8318C82.0941 28.5769 81.9461 28.3644 81.7558 28.1732C81.5656 27.982 81.3542 27.8333 81.1005 27.727C80.8469 27.6208 80.572 27.5571 80.2972 27.5571C80.0013 27.5571 79.7476 27.6208 79.4939 27.727C79.2402 27.8333 79.0288 27.982 78.8386 28.1732C78.6483 28.3644 78.5003 28.5769 78.3946 28.8318C78.2889 29.0867 78.2255 29.3629 78.2255 29.6391C78.2255 29.9365 78.2889 30.1914 78.3946 30.4465C78.5003 30.7013 78.6483 30.9138 78.8386 31.105C79.0288 31.2963 79.2402 31.445 79.4939 31.5512C79.7475 31.6574 80.0224 31.7211 80.2972 31.7211C80.5932 31.7211 80.8469 31.6574 81.1005 31.5512C81.3542 31.445 81.5656 31.2963 81.7559 31.105C81.9461 30.9138 82.0941 30.7014 82.1999 30.4465C82.3056 30.1915 82.3689 29.9153 82.3689 29.639C82.3689 29.3627 82.3055 29.0867 82.1999 28.8318H82.1998ZM81.8616 30.319C81.7771 30.5314 81.6502 30.7226 81.5021 30.8714C81.3542 31.0201 81.1639 31.1475 80.9526 31.2325C80.7412 31.3175 80.5298 31.3599 80.2761 31.3599C80.0435 31.3599 79.811 31.3175 79.5996 31.2325C79.3883 31.1476 79.1979 31.0201 79.05 30.8713C78.902 30.7226 78.7751 30.5314 78.6905 30.319C78.606 30.1065 78.5637 29.894 78.5637 29.6391C78.5637 29.4054 78.606 29.1717 78.6906 28.9593C78.7751 28.7468 78.902 28.5556 79.05 28.4069C79.1979 28.2582 79.3882 28.1307 79.5996 28.0456C79.811 27.9607 80.0224 27.9182 80.2761 27.9182C80.5086 27.9182 80.7412 27.9608 80.9526 28.0457C81.1639 28.1307 81.3542 28.2582 81.5021 28.407C81.6502 28.5556 81.7771 28.7467 81.8616 28.9593C81.9461 29.1718 81.9884 29.3842 81.9884 29.6391C81.9884 29.894 81.9461 30.1065 81.8616 30.319ZM80.6777 29.8303C80.8468 29.8091 80.9736 29.7453 81.0793 29.6391C81.185 29.5329 81.2485 29.3842 81.2485 29.1717C81.2485 28.938 81.185 28.768 81.0371 28.6406C80.9103 28.5131 80.6777 28.4493 80.4029 28.4493H79.4728V30.8501H79.9167V29.8728H80.2337L80.8257 30.8501H81.2907L80.6777 29.8303ZM80.4451 29.4691H79.9166V28.7893H80.4451C80.5085 28.7893 80.5719 28.8105 80.6354 28.8318C80.6988 28.8531 80.7411 28.8955 80.7622 28.938C80.8045 28.9805 80.8045 29.0442 80.8045 29.1292C80.8045 29.2141 80.7833 29.278 80.7622 29.3204C80.7199 29.3629 80.6776 29.4054 80.6354 29.4267C80.5719 29.4479 80.5085 29.4691 80.4451 29.4691H80.4451Z" fill="#202430"/>
</g>
<defs>
<clipPath id="clip0_3749_21909">
<rect width="82.0647" height="32" fill="white" transform="translate(0.303711)"/>
</clipPath>
</defs>
</svg>
